<svg id="DT_-_Logo" data-name="DT - Logo" xmlns="http://www.w3.org/2000/svg" xmlns:xlink="http://www.w3.org/1999/xlink" width="236" height="47.235" viewBox="0 0 236 47.235">
  <defs>
    <clipPath id="clip-path">
      <rect id="Rectángulo_5" data-name="Rectángulo 5" width="236" height="47.235" fill="#fff"/>
    </clipPath>
  </defs>
  <g id="Grupo_4" data-name="Grupo 4" clip-path="url(#clip-path)">
    <path id="Trazado_2" data-name="Trazado 2" d="M230,22.534v-.105c4.238-.788,6.782-3.153,6.782-6.516V12.82h-6.994v9.714H211.431v-.105c4.239-.788,6.782-3.153,6.782-6.516V12.82H211.22v9.714h-4.239v4.782H210.8v13.61c0,5.361,3.339,8.512,9.006,8.512a14.522,14.522,0,0,0,5.775-1.208V43.08a7.672,7.672,0,0,1-3.549.841c-2.649,0-4.239-1.419-4.239-3.889V27.316h11.57v13.61c0,5.361,3.338,8.512,9.007,8.512a14.513,14.513,0,0,0,5.774-1.208V43.08a7.663,7.663,0,0,1-3.548.841c-2.649,0-4.239-1.419-4.239-3.889V27.316h8.264V22.534Z" transform="translate(-34.658 -2.204)" fill="#fff"/>
    <rect id="Rectángulo_2" data-name="Rectángulo 2" width="6.994" height="6.568" transform="translate(87.616 10.616)" fill="#fff"/>
    <rect id="Rectángulo_3" data-name="Rectángulo 3" width="6.994" height="26.379" transform="translate(87.616 20.33)" fill="#fff"/>
    <path id="Trazado_3" data-name="Trazado 3" d="M143.981,12.819V48.912h6.994v-13.5h.106l11.656,13.5h8.584l-12.5-13.819L170.1,22.534h-8.266l-10.755,12.4h-.106V12.819Z" transform="translate(-24.109 -2.204)" fill="#fff"/>
    <path id="Trazado_4" data-name="Trazado 4" d="M266.525,51.347c7.576,0,12.08-3.258,12.08-8.671,0-6.2-5.722-7.147-10.437-7.934-3.391-.58-6.3-1.052-6.3-3.417,0-1.944,1.748-3.1,4.661-3.1,3.073,0,4.821,1.576,4.821,4.361h6.516c0-5.466-4.238-8.671-11.338-8.671-7.152,0-11.39,3-11.39,7.987,0,6.043,5.51,6.937,10.119,7.672,3.5.578,6.622,1.1,6.622,3.889,0,2.208-1.96,3.468-5.351,3.468-3.5,0-5.563-1.733-5.563-4.676h-6.516c0,5.727,4.451,9.09,12.08,9.09" transform="translate(-42.606 -4.112)" fill="#fff"/>
    <path id="Trazado_5" data-name="Trazado 5" d="M193.512,34.712H181.443c.766-3.571,2.911-5.593,6.081-5.593,3.121,0,5.262,2.022,5.988,5.593M181.166,38.42h19.39v-.788c0-8.671-4.874-13.715-13.032-13.715-8.266,0-13.14,5.044-13.14,13.715,0,8.618,4.874,13.715,13.14,13.715,7.2,0,12.078-3.678,13.032-9.932h-6.781a5.972,5.972,0,0,1-6.251,4.677c-3.763,0-6.093-2.837-6.358-7.672" transform="translate(-29.2 -4.112)" fill="#fff"/>
    <path id="Trazado_6" data-name="Trazado 6" d="M84.537,22.009c-5.63,0-9.167,3.222-9.516,8.666h-.073V12.82H67.956V48.913h6.992V40.867h.079c.4,5.408,3.928,8.572,9.51,8.572,6.675,0,10.649-5.1,10.649-13.715S91.212,22.009,84.537,22.009M81.995,43.922c-3.868,0-6.141-3.364-6.141-8.2,0-4.887,2.273-8.25,6.141-8.25s6.139,3.1,6.139,8.25-2.272,8.2-6.139,8.2" transform="translate(-11.379 -2.204)" fill="#fff"/>
    <rect id="Rectángulo_4" data-name="Rectángulo 4" width="13.369" height="46.708" transform="translate(0 0)" fill="#fff"/>
    <path id="Trazado_7" data-name="Trazado 7" d="M20.374,50.876v0c8.091-1.5,12.945-6.019,12.945-12.438V24.559H19.97V50.931Z" transform="translate(-3.344 -4.223)" fill="#fff"/>
    <path id="Trazado_8" data-name="Trazado 8" d="M136.236,30.863l1.158-6.441a10.37,10.37,0,0,0-3.254-.506c-4.6,0-7.594,3.528-8.071,9.639h-.088V24.443h-6.993V50.822h6.993V38.893c0-5.57,2.438-8.88,6.516-8.88a7.915,7.915,0,0,1,3.708.945Z" transform="translate(-19.924 -4.112)" fill="#fff"/>
  </g>
</svg>
